; NON-PLATED HOLES START AT T1
; THROUGH (PLATED) HOLES START AT T100
M48
INCH
T100C0.035000
T101C0.038000
T102C0.041694
T103C0.035433
%
T100
X012286Y022651
X012286Y021651
X015286Y018651
X015286Y021651
X015286Y022651
X012286Y025651
X015286Y024651
X012286Y020651
X015286Y019651
X012286Y024651
X012286Y019651
X015286Y023651
X015286Y025651
X012286Y018651
X012286Y023651
X015286Y020651
T101
X022286Y018651
X019197Y029651
X011198Y029651
X004286Y019651
X004286Y024651
X012197Y029651
X018198Y029651
X013242Y029651
X014286Y029651
X004286Y020651
X022286Y019651
X022286Y020651
X020242Y029651
X021286Y029651
X004286Y025651
T102
X013286Y001651
X014287Y001651
T103
X020289Y023649
X020289Y015649
X020289Y021649
X020289Y020649
X010286Y013645
X010286Y023646
X020289Y017649
X010286Y019645
X020289Y024649
X020289Y011649
X010286Y012646
X010286Y014645
X020289Y010653
X010286Y016645
X010286Y021645
X010286Y011646
X010286Y024646
X010286Y022645
X010286Y025646
X010286Y010650
X010286Y017645
X020289Y014649
X020289Y022649
X010286Y026646
X010286Y020645
X020289Y008656
X020289Y016649
X010286Y015645
X020289Y026649
X020289Y025649
X020289Y012649
X010286Y008652
X020289Y013649
X010286Y009651
X020289Y018649
X020289Y009654
X010286Y018645
X020289Y019649
T00
M30
