G04 MADE WITH FRITZING*
G04 WWW.FRITZING.ORG*
G04 SINGLE SIDED*
G04 HOLES NOT PLATED*
G04 CONTOUR ON CENTER OF CONTOUR VECTOR*
%ASAXBY*%
%FSLAX23Y23*%
%MOIN*%
%OFA0B0*%
%SFA1.0B1.0*%
%ADD10C,0.086417*%
%ADD11C,0.088000*%
%ADD12C,0.072000*%
%ADD13C,0.085000*%
%ADD14R,0.088000X0.088000*%
%ADD15R,0.085000X0.085000*%
%LNMASK0*%
G90*
G70*
G54D10*
X1429Y165D03*
X1329Y165D03*
G54D11*
X429Y2565D03*
X429Y2465D03*
X429Y1965D03*
X429Y2065D03*
X1120Y2965D03*
X1220Y2965D03*
X1324Y2965D03*
X1429Y2965D03*
X1820Y2965D03*
X1920Y2965D03*
X2024Y2965D03*
X2129Y2965D03*
G54D12*
X2029Y1165D03*
X2029Y1265D03*
X2029Y1365D03*
X2029Y1465D03*
X2029Y1565D03*
X2029Y1665D03*
X2029Y1765D03*
X2029Y1865D03*
X2029Y1965D03*
X2029Y2065D03*
X2029Y2165D03*
X2029Y2265D03*
X2029Y2365D03*
X2029Y2465D03*
X2029Y2565D03*
X2029Y2665D03*
X2029Y866D03*
X2029Y965D03*
X2029Y1065D03*
X1029Y1165D03*
X1029Y1265D03*
X1029Y1365D03*
X1029Y1465D03*
X1029Y1565D03*
X1029Y1665D03*
X1029Y1765D03*
X1029Y1865D03*
X1029Y1965D03*
X1029Y2065D03*
X1029Y2165D03*
X1029Y2265D03*
X1029Y2365D03*
X1029Y2465D03*
X1029Y2565D03*
X1029Y2665D03*
X1029Y865D03*
X1029Y965D03*
X1029Y1065D03*
G54D13*
X1529Y1865D03*
X1229Y1865D03*
X1529Y1965D03*
X1229Y1965D03*
X1529Y2065D03*
X1229Y2065D03*
X1529Y2165D03*
X1229Y2165D03*
X1529Y2265D03*
X1229Y2265D03*
X1529Y2365D03*
X1229Y2365D03*
X1529Y2465D03*
X1229Y2465D03*
X1529Y2565D03*
X1229Y2565D03*
G54D11*
X2229Y2065D03*
X2229Y1965D03*
X2229Y1865D03*
G54D14*
X1120Y2965D03*
X1820Y2965D03*
G54D15*
X1529Y1865D03*
G54D14*
X2229Y2065D03*
G04 End of Mask0*
M02*